<svg xmlns="http://www.w3.org/2000/svg" version="1.1" xmlns:xlink="http://www.w3.org/1999/xlink" xmlns:svgjs="http://svgjs.dev/svgjs" width="1000" height="1000" viewBox="0 0 1000 1000"><rect width="1000" height="1000" fill="#ffffff"></rect><g transform="matrix(0.7,0,0,0.7,150.00000964322913,172.04999999999995)"><svg viewBox="0 0 384 360" data-background-color="#ffffff" preserveAspectRatio="xMidYMid meet" height="937" width="1000" xmlns="http://www.w3.org/2000/svg" xmlns:xlink="http://www.w3.org/1999/xlink"><g id="tight-bounds" transform="matrix(1,0,0,1,0.000005289999990054639,0)"><svg viewBox="0 0 384 360" height="360" width="384"><g><svg></svg></g><g><svg viewBox="0 0 384 360" height="360" width="384"><g><path transform="translate(-42.61557,-54.61557) scale(4.69231,4.69231)" d="M86.305 42.635v-9.002c0-4.501-4.084-8.184-9.076-8.184h-19.864c-3.239 0-6.039-1.882-7.365-4.613-1.326 2.73-4.126 4.613-7.365 4.613h-19.864c-4.992 0-9.076 3.683-9.076 8.184v9.002c0 3.239-1.882 6.039-4.613 7.365 2.73 1.326 4.613 4.126 4.613 7.365v9.002c0 4.501 4.084 8.184 9.076 8.184h19.864c3.239 0 6.039 1.882 7.365 4.613 1.326-2.73 4.126-4.613 7.365-4.613h19.864c4.992 0 9.076-3.683 9.076-8.184v-9.002c0-3.239 1.882-6.039 4.613-7.365-2.73-1.326-4.613-4.126-4.613-7.365z" fill="#000000" fill-rule="nonzero" stroke="none" stroke-width="1" stroke-linecap="butt" stroke-linejoin="miter" stroke-miterlimit="10" stroke-dasharray="" stroke-dashoffset="0" font-family="none" font-weight="none" font-size="none" text-anchor="none" style="mix-blend-mode: normal" data-fill-palette-color="tertiary"></path></g><g transform="matrix(1,0,0,1,76.80000000000001,141.1935440896786)"><svg viewBox="0 0 230.39999999999998 77.6129118206428" height="77.6129118206428" width="230.39999999999998"><g><svg viewBox="0 0 370.9083175970137 124.94476799999998" height="77.6129118206428" width="230.39999999999998"><g transform="matrix(1,0,0,1,140.50831759701376,29.509377178015185)"><svg viewBox="0 0 230.39999999999998 65.92601364396961" height="65.92601364396961" width="230.39999999999998"><g id="textblocktransform"><svg viewBox="0 0 230.39999999999998 65.92601364396961" height="65.92601364396961" width="230.39999999999998" id="textblock"><g><svg viewBox="0 0 230.39999999999998 65.92601364396961" height="65.92601364396961" width="230.39999999999998"><g transform="matrix(1,0,0,1,0,0)"><svg width="230.39999999999998" viewBox="0.95 -40.6 189.66000000000003 54.27" height="65.92601364396961" data-palette-color="#ffffff"><path d="M4.13-3.17L4.13-36.21 0.95-36.82 0.95-38.79 8.11-40.6 8.11-21.56Q10.5-23.24 12.71-23.99 14.92-24.73 16.91-24.73 18.9-24.73 20.8-23.82 22.71-22.9 24.02-21.29L24.02-21.29Q26.78-17.92 26.78-12.67L26.78-12.67Q26.78-7.23 23.54-3.52L23.54-3.52Q20.02 0.56 14.01 0.56L14.01 0.56Q10.16 0.56 6.76-1.29L6.76-1.29Q5.25-2.1 4.13-3.17L4.13-3.17ZM15.16-21.56L15.16-21.56Q11.87-21.56 8.11-19.04L8.11-19.04 8.11-5.1Q10.21-2.29 14.77-2.29L14.77-2.29Q18.29-2.29 20.48-4.98L20.48-4.98Q22.53-7.47 22.53-11.21L22.53-11.21Q22.53-18.09 18.51-20.65L18.51-20.65Q17.11-21.56 15.16-21.56ZM37.52-24.73L37.52-2.59 40.65-2.03 40.65 0 30.39 0 30.39-2.03 33.57-2.59 33.57-20.36 30.39-20.92 30.39-22.95 37.52-24.73ZM33.43-32.19Q33.03-32.62 32.79-33.15 32.54-33.69 32.54-34.22 32.54-34.74 32.79-35.27 33.03-35.79 33.42-36.23L33.42-36.23Q34.32-37.21 35.07-37.21 35.81-37.21 36.34-36.94 36.86-36.67 37.28-36.23L37.28-36.23Q38.18-35.23 38.18-34.46 38.18-33.69 37.92-33.15 37.67-32.62 37.28-32.18L37.28-32.18Q36.35-31.23 35.58-31.23 34.81-31.23 34.32-31.49 33.84-31.76 33.43-32.19ZM49.87-40.6L49.87-2.59 53-2.03 53 0 42.74 0 42.74-2.03 45.92-2.59 45.92-36.21 42.74-36.82 42.74-38.79 49.87-40.6ZM62.57-24.73L62.57-2.59 65.69-2.03 65.69 0 55.44 0 55.44-2.03 58.61-2.59 58.61-20.36 55.44-20.92 55.44-22.95 62.57-24.73ZM58.48-32.19Q58.07-32.62 57.83-33.15 57.59-33.69 57.59-34.22 57.59-34.74 57.83-35.27 58.07-35.79 58.46-36.23L58.46-36.23Q59.37-37.21 60.11-37.21 60.86-37.21 61.38-36.94 61.91-36.67 62.32-36.23L62.32-36.23Q63.22-35.23 63.22-34.46 63.22-33.69 62.97-33.15 62.71-32.62 62.32-32.18L62.32-32.18Q61.39-31.23 60.62-31.23 59.86-31.23 59.37-31.49 58.88-31.76 58.48-32.19ZM83.14-21.56L83.14-21.56Q79.41-21.56 75.65-18.97L75.65-18.97 75.65-2.59 78.75-2.03 78.75 0 68.5 0 68.5-2.03 71.67-2.59 71.67-20.36 68.5-20.92 68.5-22.95 75.23-24.73 75.23-21.56Q80.17-24.73 84.39-24.73L84.39-24.73Q89.47-24.73 91.01-20.51L91.01-20.51Q91.52-19.09 91.52-17.19L91.52-17.19 91.52-2.59 94.62-2.03 94.62 0 84.39 0 84.39-2.03 87.54-2.59 87.54-16.72Q87.54-21.56 83.14-21.56ZM121.72-20.58L118.54-20.58Q119.69-18.73 119.69-15.97L119.69-15.97Q119.69-12.08 115.78-9.08L115.78-9.08Q114.07-7.76 111.78-6.88L111.78-6.88 108.04-5.47Q105.36-4.47 105-4.09 104.65-3.71 104.65-3.48 104.65-3.25 104.89-3.03 105.14-2.81 105.7-2.61L105.7-2.61Q107.04-2.15 109.46-2.15 111.88-2.15 113.98-1.89 116.08-1.64 117.69-0.93L117.69-0.93Q121.2 0.66 121.2 4.49L121.2 4.49Q121.2 7.08 119.18 9.3L119.18 9.3Q116.37 12.35 111.22 13.38L111.22 13.38Q109.68 13.67 107.82 13.67 105.97 13.67 104.04 13.28 102.11 12.89 100.67 12.06L100.67 12.06Q97.62 10.33 97.62 6.86L97.62 6.86Q97.62 4.17 99.89 2.73L99.89 2.73 101.48 1.78Q102.14 1.44 102.95 1.27 103.77 1.1 104.6 0.88L104.6 0.88Q101.97 0.37 100.96-1.22L100.96-1.22Q100.62-1.78 100.62-2.4 100.62-3.03 100.87-3.47 101.11-3.91 101.75-4.35 102.38-4.79 103.5-5.32L103.5-5.32 106.41-6.69Q104.11-7.13 102.11-8.81L102.11-8.81Q99.35-11.13 99.35-15.36L99.35-15.36Q99.35-19.41 102.92-22.22L102.92-22.22Q106.07-24.73 109.85-24.73 113.63-24.73 116.39-22.95L116.39-22.95Q118.15-24.17 122.2-24.68L122.2-24.68 122.86-23.93 121.72-20.58ZM102.04 5.46Q101.89 6.13 101.89 7.15 101.89 8.18 102.65 9.05 103.41 9.91 104.58 10.38L104.58 10.38Q106.48 11.13 108.89 11.13 111.29 11.13 112.56 10.74 113.83 10.35 114.78 9.62L114.78 9.62Q116.93 8.01 116.93 5.42L116.93 5.42Q116.93 2.17 112.34 1.76L112.34 1.76Q111 1.64 109.53 1.64L109.53 1.64Q105.33 1.64 102.87 4.1L102.87 4.1Q102.18 4.79 102.04 5.46ZM103.89-18.95L103.89-18.95Q103.38-17.75 103.38-16.03 103.38-14.31 103.89-13.04 104.41-11.77 105.29-10.89L105.29-10.89Q107.07-9.11 109.88-9.11L109.88-9.11Q113.54-9.11 115.1-12.18L115.1-12.18Q115.69-13.33 115.69-15.03 115.69-16.72 115.17-18.04 114.66-19.36 113.78-20.29L113.78-20.29Q111.95-22.22 109.19-22.22L109.19-22.22Q105.29-22.22 103.89-18.95ZM152.16-3.32L152.67-1.03Q150.01 0.56 148.42 0.56L148.42 0.56Q146.91 0.56 146.18-0.05L146.18-0.05Q144.86-1.07 144.86-2.47L144.86-2.47 144.86-2.81Q142.76-1.03 140.51-0.23 138.27 0.56 136.58 0.56L136.58 0.56Q133.16 0.56 131.22-1.31 129.28-3.17 129.28-6.96L129.28-6.96 129.28-20.36 126.38-20.85 126.38-23 133.24-24.73 133.24-6.96Q133.24-4.76 134.75-3.56L134.75-3.56Q136-2.59 137.68-2.59L137.68-2.59Q140.44-2.59 142.86-4.05L142.86-4.05Q143.95-4.69 144.86-5.54L144.86-5.54 144.86-20.36 141.17-20.85 141.17-22.88 148.81-24.73 148.81-4.13Q148.81-2.81 150.13-2.81L150.13-2.81Q151.06-2.81 152.16-3.32L152.16-3.32ZM178.72-3.56L179.16-1.27Q175.59 0.56 174.01 0.56L174.01 0.56Q170.44 0.56 170.44-2.47L170.44-2.47 170.44-3.22Q170.1-2.71 168.57-1.73 167.05-0.76 166.19-0.37L166.19-0.37Q164.17 0.56 163.12 0.56 162.07 0.56 161.38 0.48 160.7 0.39 159.97 0.15 159.24-0.1 158.53-0.54 157.82-0.98 157.26-1.68L157.26-1.68Q156.01-3.25 156.01-5.76L156.01-5.76Q156.01-9.23 158.48-10.6L158.48-10.6Q160.04-11.5 161.79-11.72 163.53-11.94 164.97-12.06L164.97-12.06Q167.71-12.3 170.44-12.35L170.44-12.35 170.44-17.48Q170.44-19.6 169.9-20.31L169.9-20.31Q169-21.56 167.1-21.56L167.1-21.56Q162.85-21.56 158.75-18.8L158.75-18.8 157.33-20.92Q163.04-24.73 167.56-24.73L167.56-24.73Q171.49-24.73 173.13-22.56L173.13-22.56Q174.4-20.87 174.4-17.77L174.4-17.77 174.4-4.93Q174.4-3.13 175.08-2.88L175.08-2.88Q175.32-2.81 175.71-2.81L175.71-2.81Q176.69-2.81 178.72-3.56L178.72-3.56ZM170.44-5.47L170.44-10.3Q163.51-10.03 161.55-8.91L161.55-8.91Q160.07-8.06 160.07-6.15L160.07-6.15Q160.07-3.39 162.19-2.76L162.19-2.76Q162.78-2.59 163.62-2.59 164.46-2.59 165.58-2.93 166.71-3.27 167.66-3.76L167.66-3.76Q169.46-4.64 170.44-5.47L170.44-5.47ZM187.48-40.6L187.48-2.59 190.61-2.03 190.61 0 180.35 0 180.35-2.03 183.52-2.59 183.52-36.21 180.35-36.82 180.35-38.79 187.48-40.6Z" opacity="1" transform="matrix(1,0,0,1,0,0)" fill="#ffffff" class="wordmark-text-0" data-fill-palette-color="quaternary" id="text-0"></path></svg></g></svg></g></svg></g></svg></g><g><svg viewBox="0 0 124.94476799999998 124.94476799999998" height="124.94476799999998" width="124.94476799999998"><g><svg></svg></g><g id="icon-0"><svg viewBox="0 0 124.94476799999998 124.94476799999998" height="124.94476799999998" width="124.94476799999998"><g><rect width="113.60718719999998" height="113.60718719999998" x="5.668790399999999" y="5.668790399999999" fill="#000000" data-fill-palette-color="accent"></rect><rect width="113.60718719999998" height="113.60718719999998" x="11.337580799999998" y="8.881784197001252e-16" fill="#000000" opacity="0.5" data-fill-palette-color="accent"></rect></g><g transform="matrix(1,0,0,1,16.196543999999996,16.196543999999996)"><svg viewBox="0 0 92.55167999999999 92.55167999999999" height="92.55167999999999" width="92.55167999999999"><g><svg xmlns="http://www.w3.org/2000/svg" xmlns:xlink="http://www.w3.org/1999/xlink" version="1.1" x="0" y="0" viewBox="2 2 60 60" style="enable-background:new 0 0 64 64;" xml:space="preserve" height="92.55167999999999" width="92.55167999999999" class="icon-cg-0" data-fill-palette-color="background" id="cg-0"><path d="M16 45c-1.654 0-3-1.346-3-3h-2c0 1.654-1.346 3-3 3v2c1.654 0 3 1.346 3 3h2c0-1.654 1.346-3 3-3V45zM12 47.031c-0.292-0.393-0.638-0.739-1.031-1.031 0.393-0.292 0.739-0.638 1.031-1.031 0.292 0.393 0.638 0.739 1.031 1.031C12.638 46.292 12.292 46.638 12 47.031z" fill="#ffffff" data-fill-palette-color="background"></path><path d="M62 46h-2V19c0-9.374-7.627-17-17.003-17H42.5C32.851 2 25 9.851 25 19.5V27c0 0.552 0.448 1 1 1h3v2c0 0.552 0.448 1 1 1h2.829c-0.413 1.164-1.525 2-2.829 2-0.552 0-1 0.448-1 1v1c0 2.757 2.243 5 5 5h10v6H31c-8.271 0-15 6.729-15 15v1h2v-1c0-7.168 5.832-13 13-13h13.42l7.712 13.496C52.311 61.809 52.643 62 53 62c0.019 0 0.038 0 0.057-0.001 0.379-0.022 0.712-0.256 0.862-0.604L59.659 48H62V46zM45 38H34c-1.654 0-3-1.346-3-3v-0.101c2.279-0.464 4-2.485 4-4.899 0-0.552-0.448-1-1-1h-3v-2c0-0.552-0.448-1-1-1h-3v-6.5C27 10.953 33.953 4 42.5 4h0.497C51.27 4 58 10.729 58 19v27H46v-7C46 38.448 45.552 38 45 38zM52.872 58.76L46.723 48h10.76L52.872 58.76z" fill="#ffffff" data-fill-palette-color="background"></path><path d="M26.901 34.433c0.167-0.346 0.12-0.758-0.121-1.058L23 28.649V18c0-2.757-2.243-5-5-5H7c-2.757 0-5 2.243-5 5v12c0 2.757 2.243 5 5 5h19C26.384 35 26.735 34.78 26.901 34.433zM7 33c-1.654 0-3-1.346-3-3V18c0-1.654 1.346-3 3-3h11c1.654 0 3 1.346 3 3v11c0 0.227 0.077 0.447 0.219 0.625l2.7 3.375H7z" fill="#ffffff" data-fill-palette-color="background"></path><path d="M12.5 18C8.916 18 6 20.691 6 24s2.916 6 6.5 6 6.5-2.691 6.5-6S16.084 18 12.5 18zM16.84 23h-1.872c-0.042-0.712-0.141-1.643-0.363-2.514C15.7 21.007 16.521 21.909 16.84 23zM12.038 25h0.924c-0.077 1.155-0.271 2.037-0.462 2.559C12.309 27.037 12.115 26.155 12.038 25zM12.038 23c0.077-1.155 0.271-2.037 0.462-2.559 0.191 0.522 0.385 1.404 0.462 2.559H12.038zM10.395 20.486c-0.222 0.87-0.321 1.802-0.363 2.514H8.16C8.479 21.909 9.3 21.007 10.395 20.486zM8.16 25h1.872c0.042 0.712 0.141 1.643 0.363 2.514C9.3 26.993 8.479 26.091 8.16 25zM14.605 27.514c0.222-0.87 0.321-1.802 0.363-2.514h1.872C16.521 26.091 15.7 26.993 14.605 27.514z" fill="#ffffff" data-fill-palette-color="background"></path><path d="M36 21c-1.654 0-3-1.346-3-3h-2c0 2.757 2.243 5 5 5s5-2.243 5-5h-2C39 19.654 37.654 21 36 21z" fill="#ffffff" data-fill-palette-color="background"></path><rect x="41" y="50" width="2" height="2" fill="#ffffff" data-fill-palette-color="background"></rect><rect x="37" y="50" width="2" height="2" fill="#ffffff" data-fill-palette-color="background"></rect><rect x="33" y="50" width="2" height="2" fill="#ffffff" data-fill-palette-color="background"></rect></svg></g></svg></g></svg></g></svg></g></svg></g></svg></g></svg></g><defs></defs></svg><rect width="384" height="360" fill="none" stroke="none" visibility="hidden"></rect></g></svg></g></svg>